<svg width="2923" height="1578" xmlns="http://www.w3.org/2000/svg" xmlns:xlink="http://www.w3.org/1999/xlink" overflow="hidden"><defs><clipPath id="clip0"><rect x="0" y="0" width="2923" height="1578"/></clipPath></defs><g clip-path="url(#clip0)"><path d="M0 0 1369 0 1369 503 0 503 0 0" fill="#BA6EA1" fill-rule="evenodd"/><path d="M0 499 1369 499 1369 1039 0 1039 0 499" fill="#2E4458" fill-rule="evenodd"/><path d="M691.828 65 691.837 65C698.392 65 704.951 68.0609 709.051 74.1779L791.868 197.755C795.559 203.256 796 209.562 794.097 215L767.589 197.108 767.589 186.314C767.589 184.942 766.706 183.726 765.405 183.29L760.363 181.615C759.246 181.243 758.097 182.069 758.097 183.249L758.097 190.334 740.464 180.863 740.464 171.111C740.464 169.39 739.361 167.857 737.72 167.311L734.571 166.265C732.802 165.673 730.972 166.985 730.972 168.844L730.972 173.19 708.376 159.648 706.344 119.535C706.16 115.883 704.813 112.372 702.432 109.586 699.913 106.64 696.268 103.676 692.053 104.149 687.838 103.676 684.193 106.64 681.674 109.586 679.288 112.372 677.946 115.883 677.758 119.535L675.726 159.648 653.129 173.19 653.129 168.844C653.129 166.985 651.304 165.673 649.535 166.265L646.381 167.311C644.745 167.857 643.637 169.39 643.637 171.111L643.637 180.863 626.009 190.334 626.009 183.249C626.009 182.069 624.856 181.243 623.739 181.615L618.701 183.29C617.396 183.726 616.517 184.942 616.517 186.314L616.517 197.108 590.335 214.775C588 208.782 588.363 201.706 592.514 195.57L674.664 74.1093C678.769 68.0381 685.301 65 691.828 65Z" fill="#2E4458" fill-rule="evenodd"/><text fill="#FFFEFD" font-family="Calibri,Calibri_MSFontService,sans-serif" font-weight="400" font-size="110" transform="matrix(1 0 0 1 469.622 314)">VOE<tspan font-size="110" x="189.979" y="0">ALTO</tspan></text><path d="M561 351 589 351 589 355.142 577.378 355.142 577.378 385 572.622 385 572.622 355.142 561 355.142 561 351Z" fill="#2E4458" fill-rule="evenodd"/><path d="M603 351 607.804 351 607.804 373.23C607.804 378.446 611.156 381.566 616.449 381.566 621.839 381.566 625.191 378.446 625.191 373.128L625.191 351 630 351 630 373.23C630 377.03 628.737 380.103 626.261 382.492 623.78 384.833 620.53 386 616.5 386 612.47 386 609.215 384.833 606.739 382.492 604.259 380.103 603 377.03 603 373.23L603 351Z" fill="#2E4458" fill-rule="evenodd"/><path d="M649 351 659.218 351 660 351.096 660 355.294 659.079 355.138 653.685 355.138 653.685 367.326 660 367.326 660 371.469 653.685 371.469 653.685 385 649 385 649 351Z" fill="#2E4458" fill-rule="evenodd"/><path d="M660 351 665.394 351.674C668.803 352.981 670.948 356.457 670.948 360.896 670.948 365.294 668.612 368.917 665.017 370.123L665.017 370.224C665.252 370.513 665.58 371.041 666.001 371.765L673 385 667.774 385 660.816 371.43 660 371.43 660 367.275 660.399 367.275C663.994 367.275 666.232 364.909 666.232 361.094 666.232 358.581 665.345 356.843 663.617 355.829L660 355.209 660 351Z" fill="#2E4458" fill-rule="evenodd"/><path d="M689 351 694 351 694 385 689 385 689 351" fill="#2E4458" fill-rule="evenodd"/><path d="M722.2 351C724.146 351 725.945 351.291 727.602 351.865 729.249 352.438 730.451 353.012 731.148 353.59L732.197 354.405 729.947 358.338C729.7 358.101 729.349 357.86 728.898 357.523 728.447 357.186 727.55 356.758 726.197 356.225 724.849 355.697 723.548 355.415 722.2 355.415 718.549 355.415 715.801 357.619 715.801 360.354 715.801 362.89 718.45 364.615 721.796 365.912 726.7 367.687 733 370.132 732.9 376.459 732.9 379.19 731.898 381.448 729.848 383.269 727.802 385.09 725.101 386 721.697 386 715.801 386 711.699 383.219 710.498 381.976L710 381.544 712.801 377.948C713 378.139 713.199 378.33 714.448 379.241 716.1 380.342 718.602 381.589 721.796 381.589 725.247 381.589 727.901 379.673 727.901 376.605 727.901 369.313 710.797 370.805 710.797 360.445 710.797 357.81 711.851 355.556 713.997 353.735 716.148 351.91 718.901 351 722.2 351Z" fill="#2E4458" fill-rule="evenodd"/><path d="M750.777 351 755.85 351 763.746 369.399 765.454 373.972 765.551 373.972C766.185 372.188 766.717 370.647 767.254 369.399L775.155 351 780.223 351 783 385 778.223 385 776.516 363.569 776.469 358.563 776.372 358.563C775.687 360.634 775.053 362.317 774.516 363.569L767.647 378.887 763.357 378.887 756.53 363.569 754.679 358.467 754.581 358.467C754.628 360.492 754.581 362.175 754.484 363.569L752.823 385 748 385 750.777 351Z" fill="#2E4458" fill-rule="evenodd"/><path d="M816 351 816 355.321 811.021 356.249C809.495 356.872 808.105 357.806 806.84 359.054 804.308 361.498 803.063 364.571 803.063 368.259 803.063 372.046 804.308 375.215 806.84 377.801 808.105 379.073 809.495 380.033 811.021 380.674L816 381.634 816 386 809.023 384.714C806.888 383.857 804.951 382.574 803.214 380.874 799.739 377.469 798 373.248 798 368.259 798 363.42 799.739 359.295 803.214 355.985 804.951 354.33 806.888 353.083 809.023 352.249L816 351Z" fill="#2E4458" fill-rule="evenodd"/><path d="M816.022 351C820.804 351 824.838 352.679 828.075 355.988 831.362 359.297 833 363.421 833 368.259 833 373.247 831.362 377.466 828.075 380.871 824.838 384.271 820.804 386 816.022 386L816 385.996 816 381.631 816.022 381.635C819.446 381.635 822.305 380.343 824.651 377.799 827.043 375.213 828.218 372.046 828.218 368.259 828.218 364.572 827.043 361.5 824.651 359.056 822.305 356.562 819.446 355.319 816.022 355.319L816 355.323 816 351.004 816.022 351Z" fill="#2E4458" fill-rule="evenodd"/><path d="M691.828 595 691.837 595C698.392 595 704.951 598.061 709.051 604.178L791.868 727.755C795.559 733.256 796 739.562 794.097 745L767.589 727.108 767.589 716.314C767.589 714.942 766.706 713.726 765.405 713.295L760.363 711.615C759.246 711.248 758.097 712.074 758.097 713.249L758.097 720.334 740.464 710.863 740.464 701.111C740.464 699.39 739.361 697.857 737.72 697.311L734.571 696.265C732.802 695.673 730.972 696.986 730.972 698.849L730.972 703.19 708.376 689.648 706.344 649.54C706.16 645.883 704.813 642.372 702.432 639.586 699.913 636.645 696.268 633.676 692.053 634.149 687.838 633.676 684.193 636.645 681.674 639.586 679.288 642.372 677.946 645.883 677.758 649.54L675.726 689.648 653.129 703.19 653.129 698.849C653.129 696.986 651.304 695.673 649.535 696.265L646.381 697.311C644.745 697.857 643.637 699.39 643.637 701.111L643.637 710.863 626.009 720.334 626.009 713.249C626.009 712.074 624.856 711.248 623.739 711.615L618.701 713.295C617.396 713.726 616.517 714.942 616.517 716.314L616.517 727.108 590.335 744.775C588 738.786 588.363 731.706 592.514 725.575L674.664 604.109C678.769 598.038 685.301 595 691.828 595Z" fill="#73C0C1" fill-rule="evenodd"/><text fill="#FFFEFD" font-family="Calibri,Calibri_MSFontService,sans-serif" font-weight="400" font-size="110" transform="matrix(1 0 0 1 469.622 844)">VOE<tspan font-size="110" x="189.979" y="0">ALTO</tspan></text><path d="M561 882 589 882 589 886.147 577.378 886.147 577.378 916 572.622 916 572.622 886.147 561 886.147 561 882Z" fill="#73C0C1" fill-rule="evenodd"/><path d="M603 882 607.804 882 607.804 903.595C607.804 908.662 611.156 911.693 616.449 911.693 621.839 911.693 625.191 908.662 625.191 903.5L625.191 882 630 882 630 903.595C630 907.286 628.737 910.272 626.261 912.592 623.78 914.867 620.53 916 616.5 916 612.47 916 609.215 914.867 606.739 912.592 604.259 910.272 603 907.286 603 903.595L603 882Z" fill="#73C0C1" fill-rule="evenodd"/><path d="M649 882 659.218 882 660 882.096 660 886.298 659.079 886.143 653.685 886.143 653.685 898.326 660 898.326 660 902.469 653.685 902.469 653.685 916 649 916 649 882Z" fill="#73C0C1" fill-rule="evenodd"/><path d="M660 882 665.394 882.674C668.803 883.981 670.948 887.457 670.948 891.901 670.948 896.294 668.612 899.917 665.017 901.128L665.017 901.224C665.252 901.513 665.58 902.041 666.001 902.765L673 916 667.774 916 660.816 902.43 660 902.43 660 898.275 660.399 898.275C663.994 898.275 666.232 895.909 666.232 892.094 666.232 889.581 665.345 887.847 663.617 886.829L660 886.213 660 882Z" fill="#73C0C1" fill-rule="evenodd"/><path d="M689 882 694 882 694 916 689 916 689 882" fill="#73C0C1" fill-rule="evenodd"/><path d="M722.2 881C724.146 881 725.945 881.287 727.602 881.86 729.249 882.434 730.451 883.012 731.148 883.586L732.197 884.401 729.947 888.334C729.7 888.097 729.349 887.856 728.898 887.519 728.447 887.182 727.55 886.755 726.197 886.222 724.849 885.698 723.548 885.411 722.2 885.411 718.549 885.411 715.801 887.615 715.801 890.351 715.801 892.887 718.45 894.617 721.796 895.91 726.7 897.685 733 900.13 732.9 906.463 732.9 909.19 731.898 911.448 729.848 913.269 727.802 915.09 725.101 916 721.697 916 715.801 916 711.699 913.218 710.498 911.976L710 911.543 712.801 907.947C713 908.138 713.199 908.329 714.448 909.24 716.1 910.342 718.602 911.593 721.796 911.593 725.247 911.593 727.901 909.672 727.901 906.604 727.901 899.315 710.797 900.804 710.797 890.442 710.797 887.806 711.851 885.553 713.997 883.732 716.148 881.911 718.901 881 722.2 881Z" fill="#73C0C1" fill-rule="evenodd"/><path d="M750.777 882 755.85 882 763.746 900.399 765.454 904.976 765.551 904.976C766.185 903.188 766.717 901.648 767.254 900.399L775.155 882 780.223 882 783 916 778.223 916 776.516 894.569 776.469 889.563 776.372 889.563C775.687 891.634 775.053 893.321 774.516 894.569L767.647 909.887 763.357 909.887 756.53 894.569 754.679 889.467 754.581 889.467C754.628 891.492 754.581 893.175 754.484 894.569L752.823 916 748 916 750.777 882Z" fill="#73C0C1" fill-rule="evenodd"/><path d="M816 881 816 885.317 811.021 886.248C809.495 886.871 808.105 887.807 806.84 889.055 804.308 891.5 803.063 894.569 803.063 898.256 803.063 902.044 804.308 905.214 806.84 907.804 808.105 909.074 809.495 910.033 811.021 910.674L816 911.633 816 916 809.023 914.716C806.888 913.859 804.951 912.576 803.214 910.873 799.739 907.468 798 903.247 798 898.256 798 893.417 799.739 889.292 803.214 885.982 804.951 884.327 806.888 883.08 809.023 882.247L816 881Z" fill="#73C0C1" fill-rule="evenodd"/><path d="M816.022 881C820.804 881 824.838 882.675 828.075 885.984 831.362 889.294 833 893.418 833 898.257 833 903.245 831.362 907.465 828.075 910.87 824.838 914.275 820.804 916 816.022 916L816 915.995 816 911.63 816.022 911.635C819.446 911.635 822.305 910.342 824.651 907.802 827.043 905.212 828.218 902.044 828.218 898.257 828.218 894.569 827.043 891.501 824.651 889.057 822.305 886.562 819.446 885.315 816.022 885.315L816 885.32 816 881.004 816.022 881Z" fill="#73C0C1" fill-rule="evenodd"/><path d="M0 1038 1369 1038 1369 1578 0 1578 0 1038" fill="#33302D" fill-rule="evenodd"/><path d="M691.828 1134 691.837 1134C698.392 1134 704.951 1137.07 709.051 1143.18L791.868 1266.75C795.559 1272.26 796 1278.56 794.097 1284L767.589 1266.11 767.589 1255.32C767.589 1253.95 766.706 1252.73 765.405 1252.29L760.363 1250.62C759.246 1250.25 758.097 1251.07 758.097 1252.25L758.097 1259.34 740.464 1249.87 740.464 1240.12C740.464 1238.39 739.361 1236.86 737.72 1236.31L734.571 1235.26C732.802 1234.68 730.972 1235.99 730.972 1237.85L730.972 1242.19 708.376 1228.65 706.344 1188.54C706.16 1184.89 704.813 1181.37 702.432 1178.59 699.913 1175.65 696.268 1172.68 692.053 1173.15 687.838 1172.68 684.193 1175.65 681.674 1178.59 679.288 1181.37 677.946 1184.89 677.758 1188.54L675.726 1228.65 653.129 1242.19 653.129 1237.85C653.129 1235.99 651.304 1234.68 649.535 1235.26L646.381 1236.31C644.745 1236.86 643.637 1238.39 643.637 1240.12L643.637 1249.87 626.009 1259.34 626.009 1252.25C626.009 1251.07 624.856 1250.25 623.739 1250.62L618.701 1252.29C617.396 1252.73 616.517 1253.95 616.517 1255.32L616.517 1266.11 590.335 1283.78C588 1277.79 588.363 1270.71 592.514 1264.57L674.664 1143.11C678.769 1137.04 685.301 1134 691.828 1134Z" fill="#6DB455" fill-rule="evenodd"/><text fill="#FFFEFD" font-family="Calibri,Calibri_MSFontService,sans-serif" font-weight="400" font-size="110" transform="matrix(1 0 0 1 469.622 1384)">VOE<tspan font-size="110" x="189.979" y="0">ALTO</tspan></text><path d="M561 1421 589 1421 589 1425.14 577.378 1425.14 577.378 1455 572.622 1455 572.622 1425.14 561 1425.14 561 1421Z" fill="#6DB455" fill-rule="evenodd"/><path d="M603 1421 607.804 1421 607.804 1442.6C607.804 1447.66 611.156 1450.69 616.449 1450.69 621.839 1450.69 625.191 1447.66 625.191 1442.5L625.191 1421 630 1421 630 1442.6C630 1446.29 628.737 1449.27 626.261 1451.59 623.78 1453.87 620.53 1455 616.5 1455 612.47 1455 609.215 1453.87 606.739 1451.59 604.259 1449.27 603 1446.29 603 1442.6L603 1421Z" fill="#6DB455" fill-rule="evenodd"/><path d="M649 1421 659.218 1421 660 1421.1 660 1425.29 659.079 1425.14 653.685 1425.14 653.685 1437.33 660 1437.33 660 1441.46 653.685 1441.46 653.685 1455 649 1455 649 1421Z" fill="#6DB455" fill-rule="evenodd"/><path d="M660 1421 665.394 1421.67C668.803 1422.98 670.948 1426.46 670.948 1430.9 670.948 1435.29 668.612 1438.92 665.017 1440.12L665.017 1440.22C665.252 1440.51 665.58 1441.04 666.001 1441.77L673 1455 667.774 1455 660.816 1441.43 660 1441.43 660 1437.28 660.399 1437.28C663.994 1437.28 666.232 1434.9 666.232 1431.09 666.232 1428.58 665.345 1426.84 663.617 1425.83L660 1425.21 660 1421Z" fill="#6DB455" fill-rule="evenodd"/><path d="M689 1421 694 1421 694 1455 689 1455 689 1421" fill="#6DB455" fill-rule="evenodd"/><path d="M722.2 1420C724.146 1420 725.945 1420.29 727.602 1420.86 729.249 1421.44 730.451 1422.01 731.148 1422.59L732.197 1423.4 729.947 1427.33C729.7 1427.1 729.349 1426.86 728.898 1426.52 728.447 1426.18 727.55 1425.76 726.197 1425.23 724.849 1424.7 723.548 1424.41 722.2 1424.41 718.549 1424.41 715.801 1426.62 715.801 1429.35 715.801 1431.89 718.45 1433.61 721.796 1434.91 726.7 1436.68 733 1439.13 732.9 1445.46 732.9 1448.19 731.898 1450.44 729.848 1452.27 727.802 1454.09 725.101 1455 721.697 1455 715.801 1455 711.699 1452.22 710.498 1450.98L710 1450.54 712.801 1446.95C713 1447.14 713.199 1447.33 714.448 1448.24 716.1 1449.34 718.602 1450.59 721.796 1450.59 725.247 1450.59 727.901 1448.67 727.901 1445.61 727.901 1438.31 710.797 1439.81 710.797 1429.45 710.797 1426.81 711.851 1424.56 713.997 1422.74 716.148 1420.91 718.901 1420 722.2 1420Z" fill="#6DB455" fill-rule="evenodd"/><path d="M750.777 1421 755.85 1421 763.746 1439.4 765.454 1443.97 765.551 1443.97C766.185 1442.19 766.717 1440.65 767.254 1439.4L775.155 1421 780.223 1421 783 1455 778.223 1455 776.516 1433.57 776.469 1428.56 776.372 1428.56C775.687 1430.63 775.053 1432.32 774.516 1433.57L767.647 1448.88 763.357 1448.88 756.53 1433.57 754.679 1428.46 754.581 1428.46C754.628 1430.49 754.581 1432.17 754.484 1433.57L752.823 1455 748 1455 750.777 1421Z" fill="#6DB455" fill-rule="evenodd"/><path d="M816 1420 816 1424.32 811.021 1425.25C809.495 1425.87 808.105 1426.81 806.84 1428.05 804.308 1430.5 803.063 1433.57 803.063 1437.26 803.063 1441.05 804.308 1444.21 806.84 1446.8 808.105 1448.07 809.495 1449.03 811.021 1449.67L816 1450.63 816 1455 809.023 1453.71C806.888 1452.86 804.951 1451.57 803.214 1449.87 799.739 1446.47 798 1442.25 798 1437.26 798 1432.42 799.739 1428.29 803.214 1424.99 804.951 1423.33 806.888 1422.08 809.023 1421.25L816 1420Z" fill="#6DB455" fill-rule="evenodd"/><path d="M816.022 1420C820.804 1420 824.838 1421.68 828.075 1424.99 831.362 1428.3 833 1432.42 833 1437.26 833 1442.25 831.362 1446.47 828.075 1449.87 824.838 1453.27 820.804 1455 816.022 1455L816 1455 816 1450.63 816.022 1450.64C819.446 1450.64 822.305 1449.34 824.651 1446.8 827.043 1444.21 828.218 1441.05 828.218 1437.26 828.218 1433.57 827.043 1430.5 824.651 1428.06 822.305 1425.56 819.446 1424.32 816.022 1424.32L816 1424.32 816 1420 816.022 1420Z" fill="#6DB455" fill-rule="evenodd"/><path d="M1554 0 2923 0 2923 503 1554 503 1554 0" fill="#575551" fill-rule="evenodd"/><path d="M1554 499 2923 499 2923 1039 1554 1039 1554 499" fill="#2E4458" fill-rule="evenodd"/><path d="M2245.33 65 2245.34 65C2251.86 65 2258.39 68.0609 2262.47 74.1779L2344.89 197.755C2348.56 203.256 2349 209.562 2347.11 215L2320.72 197.108 2320.72 186.314C2320.72 184.942 2319.85 183.726 2318.55 183.29L2313.53 181.615C2312.42 181.243 2311.28 182.069 2311.28 183.249L2311.28 190.334 2293.73 180.863 2293.73 171.111C2293.73 169.39 2292.63 167.857 2291 167.311L2287.87 166.265C2286.11 165.673 2284.28 166.985 2284.28 168.844L2284.28 173.19 2261.8 159.648 2259.77 119.535C2259.59 115.883 2258.25 112.372 2255.88 109.586 2253.38 106.64 2249.75 103.676 2245.55 104.149 2241.36 103.676 2237.73 106.64 2235.22 109.586 2232.85 112.372 2231.51 115.883 2231.33 119.535L2229.3 159.648 2206.82 173.19 2206.82 168.844C2206.82 166.985 2205 165.673 2203.24 166.265L2200.1 167.311C2198.47 167.857 2197.37 169.39 2197.37 171.111L2197.37 180.863 2179.83 190.334 2179.83 183.249C2179.83 182.069 2178.68 181.243 2177.57 181.615L2172.55 183.29C2171.25 183.726 2170.38 184.942 2170.38 186.314L2170.38 197.108 2144.32 214.775C2142 208.782 2142.36 201.706 2146.49 195.57L2228.25 74.1093C2232.33 68.0381 2238.83 65 2245.33 65Z" fill="#FFFEFD" fill-rule="evenodd"/><text fill="#FFFEFD" font-family="Calibri,Calibri_MSFontService,sans-serif" font-weight="400" font-size="110" transform="matrix(1 0 0 1 2023.35 314)">VOE<tspan font-size="110" x="189.979" y="0">ALTO</tspan></text><path d="M2115 351 2143 351 2143 355.142 2131.38 355.142 2131.38 385 2126.62 385 2126.62 355.142 2115 355.142 2115 351Z" fill="#FFFEFD" fill-rule="evenodd"/><path d="M2157 351 2161.8 351 2161.8 373.23C2161.8 378.446 2165.16 381.566 2170.45 381.566 2175.84 381.566 2179.19 378.446 2179.19 373.128L2179.19 351 2184 351 2184 373.23C2184 377.03 2182.74 380.103 2180.26 382.492 2177.78 384.833 2174.53 386 2170.5 386 2166.47 386 2163.22 384.833 2160.74 382.492 2158.26 380.103 2157 377.03 2157 373.23L2157 351Z" fill="#FFFEFD" fill-rule="evenodd"/><path d="M2202 351 2213.15 351 2214 351.096 2214 355.294 2213 355.138 2207.11 355.138 2207.11 367.326 2214 367.326 2214 371.469 2207.11 371.469 2207.11 385 2202 385 2202 351Z" fill="#FFFEFD" fill-rule="evenodd"/><path d="M2214 351 2219.39 351.674C2222.8 352.981 2224.95 356.457 2224.95 360.896 2224.95 365.294 2222.61 368.917 2219.02 370.123L2219.02 370.224C2219.25 370.513 2219.58 371.041 2220 371.765L2227 385 2221.77 385 2214.82 371.43 2214 371.43 2214 367.275 2214.4 367.275C2217.99 367.275 2220.23 364.909 2220.23 361.094 2220.23 358.581 2219.35 356.843 2217.62 355.829L2214 355.209 2214 351Z" fill="#FFFEFD" fill-rule="evenodd"/><path d="M2243 351 2248 351 2248 385 2243 385 2243 351" fill="#FFFEFD" fill-rule="evenodd"/><path d="M2275.67 351C2277.53 351 2279.25 351.291 2280.84 351.865 2282.41 352.438 2283.56 353.012 2284.23 353.59L2285.23 354.405 2283.08 358.338C2282.84 358.101 2282.51 357.86 2282.08 357.523 2281.65 357.186 2280.79 356.758 2279.49 356.225 2278.2 355.697 2276.96 355.415 2275.67 355.415 2272.18 355.415 2269.55 357.619 2269.55 360.354 2269.55 362.89 2272.08 364.615 2275.28 365.912 2279.97 367.687 2286 370.132 2285.9 376.459 2285.9 379.19 2284.95 381.448 2282.99 383.269 2281.03 385.09 2278.44 386 2275.19 386 2269.55 386 2265.63 383.219 2264.48 381.976L2264 381.544 2266.68 377.948C2266.87 378.139 2267.06 378.33 2268.25 379.241 2269.83 380.342 2272.23 381.589 2275.28 381.589 2278.58 381.589 2281.12 379.673 2281.12 376.605 2281.12 369.313 2264.76 370.805 2264.76 360.445 2264.76 357.81 2265.77 355.556 2267.82 353.735 2269.88 351.91 2272.51 351 2275.67 351Z" fill="#FFFEFD" fill-rule="evenodd"/><path d="M2304.7 351 2309.63 351 2317.3 369.399 2318.95 373.972 2319.05 373.972C2319.66 372.188 2320.18 370.647 2320.71 369.399L2328.38 351 2333.3 351 2336 385 2331.36 385 2329.71 363.569 2329.66 358.563 2329.56 358.563C2328.9 360.634 2328.28 362.317 2327.76 363.569L2321.09 378.887 2316.92 378.887 2310.29 363.569 2308.49 358.467 2308.39 358.467C2308.44 360.492 2308.39 362.175 2308.3 363.569L2306.68 385 2302 385 2304.7 351Z" fill="#FFFEFD" fill-rule="evenodd"/><path d="M2369 351 2369 355.321 2364.3 356.249C2362.86 356.872 2361.54 357.806 2360.35 359.054 2357.96 361.498 2356.78 364.571 2356.78 368.259 2356.78 372.046 2357.96 375.215 2360.35 377.801 2361.54 379.073 2362.86 380.033 2364.3 380.674L2369 381.634 2369 386 2362.41 384.714C2360.4 383.857 2358.57 382.574 2356.92 380.874 2353.64 377.469 2352 373.248 2352 368.259 2352 363.42 2353.64 359.295 2356.92 355.985 2358.57 354.33 2360.4 353.083 2362.41 352.249L2369 351Z" fill="#FFFEFD" fill-rule="evenodd"/><path d="M2369.02 351C2374.09 351 2378.36 352.679 2381.78 355.988 2385.26 359.297 2387 363.421 2387 368.259 2387 373.247 2385.26 377.466 2381.78 380.871 2378.36 384.271 2374.09 386 2369.02 386L2369 385.996 2369 381.631 2369.02 381.635C2372.65 381.635 2375.68 380.343 2378.16 377.799 2380.69 375.213 2381.93 372.046 2381.93 368.259 2381.93 364.572 2380.69 361.5 2378.16 359.056 2375.68 356.562 2372.65 355.319 2369.02 355.319L2369 355.324 2369 351.004 2369.02 351Z" fill="#FFFEFD" fill-rule="evenodd"/><path d="M2245.33 595 2245.34 595C2251.86 595 2258.39 598.061 2262.47 604.178L2344.89 727.755C2348.56 733.256 2349 739.562 2347.11 745L2320.72 727.108 2320.72 716.314C2320.72 714.942 2319.85 713.726 2318.55 713.295L2313.53 711.615C2312.42 711.248 2311.28 712.074 2311.28 713.249L2311.28 720.334 2293.73 710.863 2293.73 701.111C2293.73 699.39 2292.63 697.857 2291 697.311L2287.87 696.265C2286.11 695.673 2284.28 696.986 2284.28 698.849L2284.28 703.19 2261.8 689.648 2259.77 649.54C2259.59 645.883 2258.25 642.372 2255.88 639.586 2253.38 636.645 2249.75 633.676 2245.55 634.149 2241.36 633.676 2237.73 636.645 2235.22 639.586 2232.85 642.372 2231.51 645.883 2231.33 649.54L2229.3 689.648 2206.82 703.19 2206.82 698.849C2206.82 696.986 2205 695.673 2203.24 696.265L2200.1 697.311C2198.47 697.857 2197.37 699.39 2197.37 701.111L2197.37 710.863 2179.83 720.334 2179.83 713.249C2179.83 712.074 2178.68 711.248 2177.57 711.615L2172.55 713.295C2171.25 713.726 2170.38 714.942 2170.38 716.314L2170.38 727.108 2144.32 744.775C2142 738.786 2142.36 731.706 2146.49 725.575L2228.25 604.109C2232.33 598.038 2238.83 595 2245.33 595Z" fill="#ED7634" fill-rule="evenodd"/><text fill="#FFFEFD" font-family="Calibri,Calibri_MSFontService,sans-serif" font-weight="400" font-size="110" transform="matrix(1 0 0 1 2023.35 844)">VOE<tspan font-size="110" x="189.979" y="0">ALTO</tspan></text><path d="M2115 882 2143 882 2143 886.147 2131.38 886.147 2131.38 916 2126.62 916 2126.62 886.147 2115 886.147 2115 882Z" fill="#ED7634" fill-rule="evenodd"/><path d="M2157 882 2161.8 882 2161.8 903.595C2161.8 908.662 2165.16 911.693 2170.45 911.693 2175.84 911.693 2179.19 908.662 2179.19 903.5L2179.19 882 2184 882 2184 903.595C2184 907.286 2182.74 910.272 2180.26 912.592 2177.78 914.867 2174.53 916 2170.5 916 2166.47 916 2163.22 914.867 2160.74 912.592 2158.26 910.272 2157 907.286 2157 903.595L2157 882Z" fill="#ED7634" fill-rule="evenodd"/><path d="M2202 882 2213.15 882 2214 882.096 2214 886.298 2213 886.143 2207.11 886.143 2207.11 898.326 2214 898.326 2214 902.469 2207.11 902.469 2207.11 916 2202 916 2202 882Z" fill="#ED7634" fill-rule="evenodd"/><path d="M2214 882 2219.39 882.674C2222.8 883.981 2224.95 887.457 2224.95 891.901 2224.95 896.294 2222.61 899.917 2219.02 901.128L2219.02 901.224C2219.25 901.513 2219.58 902.041 2220 902.765L2227 916 2221.77 916 2214.82 902.43 2214 902.43 2214 898.275 2214.4 898.275C2217.99 898.275 2220.23 895.909 2220.23 892.094 2220.23 889.581 2219.35 887.847 2217.62 886.829L2214 886.213 2214 882Z" fill="#ED7634" fill-rule="evenodd"/><path d="M2243 882 2248 882 2248 916 2243 916 2243 882" fill="#ED7634" fill-rule="evenodd"/><path d="M2275.67 881C2277.53 881 2279.25 881.287 2280.84 881.86 2282.41 882.434 2283.56 883.012 2284.23 883.586L2285.23 884.401 2283.08 888.334C2282.84 888.097 2282.51 887.856 2282.08 887.519 2281.65 887.182 2280.79 886.755 2279.49 886.222 2278.2 885.698 2276.96 885.411 2275.67 885.411 2272.18 885.411 2269.55 887.615 2269.55 890.351 2269.55 892.887 2272.08 894.617 2275.28 895.91 2279.97 897.685 2286 900.13 2285.9 906.463 2285.9 909.19 2284.95 911.448 2282.99 913.269 2281.03 915.09 2278.44 916 2275.19 916 2269.55 916 2265.63 913.218 2264.48 911.976L2264 911.543 2266.68 907.947C2266.87 908.138 2267.06 908.329 2268.25 909.24 2269.83 910.342 2272.23 911.593 2275.28 911.593 2278.58 911.593 2281.12 909.672 2281.12 906.604 2281.12 899.315 2264.76 900.804 2264.76 890.442 2264.76 887.806 2265.77 885.553 2267.82 883.732 2269.88 881.911 2272.51 881 2275.67 881Z" fill="#ED7634" fill-rule="evenodd"/><path d="M2304.7 882 2309.63 882 2317.3 900.399 2318.95 904.976 2319.05 904.976C2319.66 903.188 2320.18 901.648 2320.71 900.399L2328.38 882 2333.3 882 2336 916 2331.36 916 2329.71 894.569 2329.66 889.563 2329.56 889.563C2328.9 891.634 2328.28 893.321 2327.76 894.569L2321.09 909.887 2316.92 909.887 2310.29 894.569 2308.49 889.467 2308.39 889.467C2308.44 891.492 2308.39 893.175 2308.3 894.569L2306.68 916 2302 916 2304.7 882Z" fill="#ED7634" fill-rule="evenodd"/><path d="M2369 881 2369 885.317 2364.3 886.248C2362.86 886.871 2361.54 887.807 2360.35 889.055 2357.96 891.5 2356.78 894.569 2356.78 898.256 2356.78 902.044 2357.96 905.214 2360.35 907.804 2361.54 909.074 2362.86 910.033 2364.3 910.674L2369 911.633 2369 916 2362.41 914.716C2360.4 913.859 2358.57 912.576 2356.92 910.873 2353.64 907.468 2352 903.247 2352 898.256 2352 893.417 2353.64 889.292 2356.92 885.982 2358.57 884.327 2360.4 883.08 2362.41 882.247L2369 881Z" fill="#ED7634" fill-rule="evenodd"/><path d="M2369.02 881C2374.09 881 2378.36 882.675 2381.78 885.984 2385.26 889.294 2387 893.418 2387 898.257 2387 903.245 2385.26 907.465 2381.78 910.87 2378.36 914.275 2374.09 916 2369.02 916L2369 915.995 2369 911.63 2369.02 911.635C2372.65 911.635 2375.68 910.342 2378.16 907.802 2380.69 905.212 2381.93 902.044 2381.93 898.257 2381.93 894.569 2380.69 891.501 2378.16 889.057 2375.68 886.562 2372.65 885.315 2369.02 885.315L2369 885.32 2369 881.004 2369.02 881Z" fill="#ED7634" fill-rule="evenodd"/><path d="M1554 1038 2923 1038 2923 1578 1554 1578 1554 1038" fill="#33302D" fill-rule="evenodd"/><path d="M2245.33 1134 2245.34 1134C2251.86 1134 2258.39 1137.07 2262.47 1143.18L2344.89 1266.75C2348.56 1272.26 2349 1278.56 2347.11 1284L2320.72 1266.11 2320.72 1255.32C2320.72 1253.95 2319.85 1252.73 2318.55 1252.29L2313.53 1250.62C2312.42 1250.25 2311.28 1251.07 2311.28 1252.25L2311.28 1259.34 2293.73 1249.87 2293.73 1240.12C2293.73 1238.39 2292.63 1236.86 2291 1236.31L2287.87 1235.26C2286.11 1234.68 2284.28 1235.99 2284.28 1237.85L2284.28 1242.19 2261.8 1228.65 2259.77 1188.54C2259.59 1184.89 2258.25 1181.37 2255.88 1178.59 2253.38 1175.65 2249.75 1172.68 2245.55 1173.15 2241.36 1172.68 2237.73 1175.65 2235.22 1178.59 2232.85 1181.37 2231.51 1184.89 2231.33 1188.54L2229.3 1228.65 2206.82 1242.19 2206.82 1237.85C2206.82 1235.99 2205 1234.68 2203.24 1235.26L2200.1 1236.31C2198.47 1236.86 2197.37 1238.39 2197.37 1240.12L2197.37 1249.87 2179.83 1259.34 2179.83 1252.25C2179.83 1251.07 2178.68 1250.25 2177.57 1250.62L2172.55 1252.29C2171.25 1252.73 2170.38 1253.95 2170.38 1255.32L2170.38 1266.11 2144.32 1283.78C2142 1277.79 2142.36 1270.71 2146.49 1264.57L2228.25 1143.11C2232.33 1137.04 2238.83 1134 2245.33 1134Z" fill="#F18965" fill-rule="evenodd"/><text fill="#FFFEFD" font-family="Calibri,Calibri_MSFontService,sans-serif" font-weight="400" font-size="110" transform="matrix(1 0 0 1 2023.35 1384)">VOE<tspan font-size="110" x="189.979" y="0">ALTO</tspan></text><path d="M2115 1421 2143 1421 2143 1425.14 2131.38 1425.14 2131.38 1455 2126.62 1455 2126.62 1425.14 2115 1425.14 2115 1421Z" fill="#F18965" fill-rule="evenodd"/><path d="M2157 1421 2161.8 1421 2161.8 1442.6C2161.8 1447.66 2165.16 1450.69 2170.45 1450.69 2175.84 1450.69 2179.19 1447.66 2179.19 1442.5L2179.19 1421 2184 1421 2184 1442.6C2184 1446.29 2182.74 1449.27 2180.26 1451.59 2177.78 1453.87 2174.53 1455 2170.5 1455 2166.47 1455 2163.22 1453.87 2160.74 1451.59 2158.26 1449.27 2157 1446.29 2157 1442.6L2157 1421Z" fill="#F18965" fill-rule="evenodd"/><path d="M2202 1421 2213.15 1421 2214 1421.1 2214 1425.29 2213 1425.14 2207.11 1425.14 2207.11 1437.33 2214 1437.33 2214 1441.46 2207.11 1441.46 2207.11 1455 2202 1455 2202 1421Z" fill="#F18965" fill-rule="evenodd"/><path d="M2214 1421 2219.39 1421.67C2222.8 1422.98 2224.95 1426.46 2224.95 1430.9 2224.95 1435.29 2222.61 1438.92 2219.02 1440.12L2219.02 1440.22C2219.25 1440.51 2219.58 1441.04 2220 1441.77L2227 1455 2221.77 1455 2214.82 1441.43 2214 1441.43 2214 1437.28 2214.4 1437.28C2217.99 1437.28 2220.23 1434.9 2220.23 1431.09 2220.23 1428.58 2219.35 1426.84 2217.62 1425.83L2214 1425.21 2214 1421Z" fill="#F18965" fill-rule="evenodd"/><path d="M2243 1421 2248 1421 2248 1455 2243 1455 2243 1421" fill="#F18965" fill-rule="evenodd"/><path d="M2275.67 1420C2277.53 1420 2279.25 1420.29 2280.84 1420.86 2282.41 1421.44 2283.56 1422.01 2284.23 1422.59L2285.23 1423.4 2283.08 1427.33C2282.84 1427.1 2282.51 1426.86 2282.08 1426.52 2281.65 1426.18 2280.79 1425.76 2279.49 1425.23 2278.2 1424.7 2276.96 1424.41 2275.67 1424.41 2272.18 1424.41 2269.55 1426.62 2269.55 1429.35 2269.55 1431.89 2272.08 1433.61 2275.28 1434.91 2279.97 1436.68 2286 1439.13 2285.9 1445.46 2285.9 1448.19 2284.95 1450.44 2282.99 1452.27 2281.03 1454.09 2278.44 1455 2275.19 1455 2269.55 1455 2265.63 1452.22 2264.48 1450.98L2264 1450.54 2266.68 1446.95C2266.87 1447.14 2267.06 1447.33 2268.25 1448.24 2269.83 1449.34 2272.23 1450.59 2275.28 1450.59 2278.58 1450.59 2281.12 1448.67 2281.12 1445.61 2281.12 1438.31 2264.76 1439.81 2264.76 1429.45 2264.76 1426.81 2265.77 1424.56 2267.82 1422.74 2269.88 1420.91 2272.51 1420 2275.67 1420Z" fill="#F18965" fill-rule="evenodd"/><path d="M2304.7 1421 2309.63 1421 2317.3 1439.4 2318.95 1443.97 2319.05 1443.97C2319.66 1442.19 2320.18 1440.65 2320.71 1439.4L2328.38 1421 2333.3 1421 2336 1455 2331.36 1455 2329.71 1433.57 2329.66 1428.56 2329.56 1428.56C2328.9 1430.63 2328.28 1432.32 2327.76 1433.57L2321.09 1448.88 2316.92 1448.88 2310.29 1433.57 2308.49 1428.46 2308.39 1428.46C2308.44 1430.49 2308.39 1432.17 2308.3 1433.57L2306.68 1455 2302 1455 2304.7 1421Z" fill="#F18965" fill-rule="evenodd"/><path d="M2369 1420 2369 1424.32 2364.3 1425.25C2362.86 1425.87 2361.54 1426.81 2360.35 1428.05 2357.96 1430.5 2356.78 1433.57 2356.78 1437.26 2356.78 1441.05 2357.96 1444.21 2360.35 1446.8 2361.54 1448.07 2362.86 1449.03 2364.3 1449.67L2369 1450.63 2369 1455 2362.41 1453.71C2360.4 1452.86 2358.57 1451.57 2356.92 1449.87 2353.64 1446.47 2352 1442.25 2352 1437.26 2352 1432.42 2353.64 1428.29 2356.92 1424.99 2358.57 1423.33 2360.4 1422.08 2362.41 1421.25L2369 1420Z" fill="#F18965" fill-rule="evenodd"/><path d="M2369.02 1420C2374.09 1420 2378.36 1421.68 2381.78 1424.99 2385.26 1428.3 2387 1432.42 2387 1437.26 2387 1442.25 2385.26 1446.47 2381.78 1449.87 2378.36 1453.27 2374.09 1455 2369.02 1455L2369 1455 2369 1450.63 2369.02 1450.64C2372.65 1450.64 2375.68 1449.34 2378.16 1446.8 2380.69 1444.21 2381.93 1441.05 2381.93 1437.26 2381.93 1433.57 2380.69 1430.5 2378.16 1428.06 2375.68 1425.56 2372.65 1424.32 2369.02 1424.32L2369 1424.32 2369 1420 2369.02 1420Z" fill="#F18965" fill-rule="evenodd"/></g></svg>