<svg xmlns="http://www.w3.org/2000/svg" xmlns:xlink="http://www.w3.org/1999/xlink" width="500" zoomAndPan="magnify" viewBox="0 0 375 374.999991" height="500" preserveAspectRatio="xMidYMid meet" version="1.0"><path fill="rgb(100%, 100%, 100%)" d="M 332.476562 31.273438 L 523.726562 31.273438 L 523.726562 222.523438 L 332.476562 222.523438 L 332.476562 31.273438 " fill-opacity="1" fill-rule="nonzero"/><path fill="rgb(74.899292%, 41.958618%, 66.268921%)" d="M 40.191406 213.605469 C 39.328125 214.34375 37.984375 214.992188 36.164062 215.542969 C 34.34375 216.097656 32.351562 216.375 30.191406 216.375 C 27.597656 216.375 25.378906 215.992188 23.523438 215.21875 C 21.667969 214.449219 20.410156 213.394531 19.730469 212.039062 C 19.050781 210.621094 18.214844 208.792969 17.230469 206.546875 C 16.242188 204.296875 15.207031 201.792969 14.125 199.023438 C 13.042969 196.253906 11.933594 193.320312 10.792969 190.210938 C 9.652344 187.105469 8.554688 183.953125 7.503906 180.753906 C 6.453125 177.554688 5.46875 174.417969 4.542969 171.339844 C 3.617188 168.265625 2.820312 165.371094 2.140625 162.664062 C 3.003906 161.804688 4.253906 161.019531 5.890625 160.3125 C 7.527344 159.605469 9.269531 159.25 11.121094 159.25 C 13.402344 159.25 15.269531 159.730469 16.71875 160.683594 C 18.167969 161.636719 19.234375 163.40625 19.914062 165.988281 C 21.578125 172.019531 23.261719 177.789062 24.957031 183.292969 C 26.652344 188.796875 28.425781 194.539062 30.277344 200.503906 L 30.832031 200.503906 C 32.5 194.71875 34.214844 188.414062 35.972656 181.582031 C 37.726562 174.753906 39.410156 167.957031 41.015625 161.1875 C 42.125 160.632812 43.316406 160.171875 44.578125 159.800781 C 45.84375 159.429688 47.277344 159.246094 48.882812 159.246094 C 51.167969 159.246094 53.109375 159.753906 54.714844 160.769531 C 56.316406 161.78125 57.121094 163.460938 57.121094 165.796875 C 57.121094 167.152344 56.796875 169.121094 56.148438 171.703125 C 55.503906 174.285156 54.667969 177.195312 53.648438 180.425781 C 52.632812 183.65625 51.488281 187.023438 50.226562 190.53125 C 48.964844 194.039062 47.695312 197.34375 46.429688 200.453125 C 45.164062 203.558594 43.976562 206.296875 42.867188 208.667969 C 41.753906 211.035156 40.855469 212.679688 40.179688 213.605469 " fill-opacity="1" fill-rule="nonzero"/><path fill="rgb(74.899292%, 41.958618%, 66.268921%)" d="M 74.160156 187.394531 C 74.160156 192.996094 75.304688 197.179688 77.585938 199.949219 C 79.867188 202.71875 82.921875 204.101562 86.75 204.101562 C 90.640625 204.101562 93.71875 202.71875 96.007812 199.949219 C 98.292969 197.179688 99.429688 193 99.429688 187.394531 C 99.429688 181.859375 98.300781 177.707031 96.050781 174.9375 C 93.796875 172.167969 90.730469 170.78125 86.839844 170.78125 C 83.007812 170.78125 79.941406 172.148438 77.628906 174.890625 C 75.316406 177.628906 74.15625 181.796875 74.15625 187.394531 M 57.496094 187.394531 C 57.496094 182.597656 58.253906 178.355469 59.765625 174.660156 C 61.277344 170.964844 63.34375 167.875 65.96875 165.382812 C 68.59375 162.890625 71.675781 161 75.226562 159.707031 C 78.777344 158.417969 82.617188 157.773438 86.753906 157.773438 C 90.890625 157.773438 94.730469 158.421875 98.277344 159.710938 C 101.824219 161.003906 104.925781 162.894531 107.582031 165.386719 C 110.234375 167.878906 112.316406 170.96875 113.832031 174.664062 C 115.34375 178.359375 116.101562 182.601562 116.101562 187.398438 C 116.101562 192.199219 115.359375 196.460938 113.878906 200.183594 C 112.394531 203.90625 110.34375 207.015625 107.722656 209.503906 C 105.101562 211.992188 102 213.886719 98.417969 215.179688 C 94.835938 216.46875 90.949219 217.117188 86.753906 217.117188 C 82.554688 217.117188 78.667969 216.457031 75.089844 215.132812 C 71.511719 213.804688 68.425781 211.882812 65.832031 209.363281 C 63.238281 206.839844 61.203125 203.734375 59.722656 200.042969 C 58.246094 196.351562 57.5 192.136719 57.5 187.394531 " fill-opacity="1" fill-rule="nonzero"/><path fill="rgb(74.899292%, 41.958618%, 66.268921%)" d="M 120.84375 168.136719 C 120.84375 165.484375 121.605469 163.386719 123.140625 161.84375 C 124.675781 160.300781 126.765625 159.53125 129.40625 159.53125 L 159.796875 159.53125 C 160.226562 160.210938 160.609375 161.105469 160.949219 162.214844 C 161.289062 163.328125 161.453125 164.496094 161.453125 165.730469 C 161.453125 168.078125 160.949219 169.742188 159.9375 170.730469 C 158.925781 171.714844 157.589844 172.210938 155.929688 172.210938 L 136.496094 172.210938 L 136.496094 180.8125 L 157.214844 180.8125 C 157.644531 181.492188 158.027344 182.371094 158.367188 183.445312 C 158.707031 184.523438 158.875 185.683594 158.875 186.914062 C 158.875 189.261719 158.378906 190.925781 157.402344 191.914062 C 156.425781 192.902344 155.097656 193.394531 153.441406 193.394531 L 136.496094 193.394531 L 136.496094 203.109375 L 160.160156 203.109375 C 160.589844 203.789062 160.972656 204.683594 161.3125 205.792969 C 161.652344 206.902344 161.820312 208.074219 161.820312 209.308594 C 161.820312 211.652344 161.3125 213.332031 160.300781 214.355469 C 159.289062 215.375 157.957031 215.878906 156.296875 215.878906 L 129.40625 215.878906 C 126.765625 215.878906 124.675781 215.109375 123.140625 213.566406 C 121.605469 212.027344 120.84375 209.929688 120.84375 207.273438 Z M 120.84375 168.136719 " fill-opacity="1" fill-rule="nonzero"/><path fill="rgb(74.899292%, 41.958618%, 66.268921%)" d="M 204.339844 173.089844 C 203.472656 175.679688 202.503906 178.554688 201.425781 181.71875 C 200.34375 184.886719 199.375 188.101562 198.511719 191.363281 L 209.980469 191.363281 C 209.117188 188.039062 208.238281 184.796875 207.347656 181.625 C 206.453125 178.457031 205.632812 175.613281 204.894531 173.085938 Z M 193.246094 161.1875 C 194.289062 160.574219 195.878906 159.988281 198.007812 159.433594 C 200.140625 158.882812 202.277344 158.605469 204.433594 158.605469 C 207.515625 158.605469 210.246094 159.050781 212.621094 159.941406 C 214.992188 160.832031 216.515625 162.234375 217.195312 164.140625 C 218.304688 167.339844 219.507812 171.058594 220.804688 175.308594 C 222.101562 179.554688 223.390625 183.9375 224.6875 188.460938 C 225.988281 192.988281 227.246094 197.445312 228.480469 201.839844 C 229.714844 206.238281 230.789062 210.132812 231.714844 213.515625 C 230.976562 214.375 229.867188 215.070312 228.386719 215.589844 C 226.90625 216.109375 225.148438 216.375 223.113281 216.375 C 221.632812 216.375 220.386719 216.25 219.371094 216.003906 C 218.351562 215.757812 217.519531 215.390625 216.871094 214.898438 C 216.222656 214.402344 215.703125 213.757812 215.300781 212.957031 C 214.898438 212.15625 214.542969 211.238281 214.238281 210.1875 L 212.570312 203.824219 L 195.832031 203.824219 C 195.335938 205.667969 194.84375 207.578125 194.355469 209.542969 C 193.863281 211.511719 193.367188 213.417969 192.871094 215.265625 C 192.011719 215.574219 191.101562 215.835938 190.144531 216.050781 C 189.1875 216.269531 188.03125 216.375 186.679688 216.375 C 183.535156 216.375 181.203125 215.835938 179.695312 214.761719 C 178.191406 213.6875 177.429688 212.191406 177.429688 210.285156 C 177.429688 209.425781 177.554688 208.566406 177.800781 207.699219 C 178.050781 206.835938 178.328125 205.824219 178.632812 204.652344 C 179.066406 202.992188 179.667969 200.929688 180.4375 198.46875 C 181.203125 196.011719 182.054688 193.347656 182.980469 190.488281 C 183.90625 187.628906 184.894531 184.691406 185.9375 181.671875 C 186.984375 178.65625 187.976562 175.8125 188.898438 173.136719 C 189.820312 170.460938 190.667969 168.078125 191.441406 165.984375 C 192.214844 163.890625 192.8125 162.292969 193.246094 161.1875 " fill-opacity="1" fill-rule="nonzero"/><path fill="rgb(74.899292%, 41.958618%, 66.268921%)" d="M 243.546875 215.726562 C 240.894531 215.726562 238.800781 214.960938 237.257812 213.421875 C 235.71875 211.882812 234.949219 209.792969 234.949219 207.144531 L 234.949219 159.433594 C 235.628906 159.3125 236.703125 159.144531 238.183594 158.929688 C 239.667969 158.710938 241.082031 158.605469 242.4375 158.605469 C 243.855469 158.605469 245.101562 158.714844 246.183594 158.929688 C 247.261719 159.140625 248.171875 159.527344 248.910156 160.082031 C 249.648438 160.636719 250.203125 161.40625 250.574219 162.386719 C 250.945312 163.367188 251.128906 164.664062 251.128906 166.265625 L 251.128906 202.71875 L 272.308594 202.71875 C 272.738281 203.394531 273.140625 204.304688 273.511719 205.441406 C 273.882812 206.578125 274.066406 207.765625 274.066406 208.996094 C 274.066406 211.457031 273.539062 213.191406 272.496094 214.210938 C 271.449219 215.230469 270.0625 215.730469 268.332031 215.730469 Z M 243.546875 215.726562 " fill-opacity="1" fill-rule="nonzero"/><path fill="rgb(74.899292%, 41.958618%, 66.268921%)" d="M 269.898438 172.449219 C 269.46875 171.769531 269.066406 170.851562 268.695312 169.679688 C 268.324219 168.507812 268.140625 167.28125 268.140625 165.984375 C 268.140625 163.585938 268.675781 161.863281 269.757812 160.816406 C 270.839844 159.765625 272.238281 159.246094 273.96875 159.246094 L 314.285156 159.246094 C 314.714844 159.925781 315.117188 160.847656 315.488281 162.015625 C 315.859375 163.183594 316.042969 164.417969 316.042969 165.707031 C 316.042969 168.105469 315.5 169.832031 314.425781 170.875 C 313.347656 171.917969 311.945312 172.445312 310.21875 172.445312 L 299.957031 172.445312 L 299.957031 215.085938 C 299.277344 215.265625 298.214844 215.449219 296.765625 215.636719 C 295.320312 215.824219 293.882812 215.914062 292.46875 215.914062 C 291.050781 215.914062 289.796875 215.808594 288.722656 215.589844 C 287.648438 215.375 286.734375 214.992188 285.996094 214.4375 C 285.257812 213.882812 284.699219 213.117188 284.328125 212.132812 C 283.957031 211.148438 283.773438 209.855469 283.773438 208.253906 L 283.773438 172.449219 Z M 269.898438 172.449219 " fill-opacity="1" fill-rule="nonzero"/><path fill="rgb(74.899292%, 41.958618%, 66.268921%)" d="M 331.023438 187.394531 C 331.023438 192.996094 332.164062 197.179688 334.445312 199.949219 C 336.726562 202.71875 339.777344 204.101562 343.597656 204.101562 C 347.480469 204.101562 350.5625 202.71875 352.847656 199.949219 C 355.128906 197.179688 356.265625 193 356.265625 187.394531 C 356.265625 181.859375 355.144531 177.707031 352.894531 174.9375 C 350.644531 172.167969 347.578125 170.78125 343.691406 170.78125 C 339.871094 170.78125 336.800781 172.148438 334.492188 174.890625 C 332.183594 177.628906 331.023438 181.796875 331.023438 187.394531 M 314.378906 187.394531 C 314.378906 182.597656 315.132812 178.355469 316.644531 174.660156 C 318.15625 170.964844 320.21875 167.875 322.839844 165.382812 C 325.460938 162.890625 328.542969 161 332.089844 159.707031 C 335.632812 158.417969 339.46875 157.773438 343.601562 157.773438 C 347.730469 157.773438 351.570312 158.421875 355.113281 159.710938 C 358.65625 161.003906 361.757812 162.894531 364.40625 165.386719 C 367.058594 167.878906 369.136719 170.96875 370.648438 174.664062 C 372.160156 178.359375 372.917969 182.601562 372.917969 187.398438 C 372.917969 192.199219 372.175781 196.460938 370.695312 200.183594 C 369.21875 203.90625 367.167969 207.015625 364.550781 209.503906 C 361.933594 211.992188 358.832031 213.886719 355.253906 215.179688 C 351.675781 216.46875 347.796875 217.117188 343.601562 217.117188 C 339.410156 217.117188 335.523438 216.457031 331.953125 215.132812 C 328.378906 213.804688 325.296875 211.882812 322.703125 209.363281 C 320.113281 206.839844 318.078125 203.734375 316.601562 200.042969 C 315.125 196.351562 314.382812 192.136719 314.382812 187.394531 " fill-opacity="1" fill-rule="nonzero"/></svg>