<svg width="2869" height="706" xmlns="http://www.w3.org/2000/svg" xmlns:xlink="http://www.w3.org/1999/xlink" overflow="hidden"><defs><clipPath id="clip0"><rect x="0" y="0" width="2869" height="706"/></clipPath></defs><g clip-path="url(#clip0)"><path d="M0 0 1288 0 1288 706 0 706 0 0" fill="#110F0D" fill-rule="evenodd"/><path d="M1545 0 2833 0 2833 706 1545 706 1545 0" fill="#110F0D" fill-rule="evenodd"/><text fill="#FFFEFD" font-family="Calibri,Calibri_MSFontService,sans-serif" font-weight="400" font-size="163" transform="matrix(1 0 0 1 347.04 456)">VOE<tspan font-size="163" x="281.669" y="0">ALTO</tspan></text><path d="M483 512 525 512 525 518.209 507.567 518.209 507.567 563 500.433 563 500.433 518.209 483 518.209 483 512Z" fill="#FFFEFD" fill-rule="evenodd"/><path d="M545 512 552.123 512 552.123 545.025C552.123 552.775 557.086 557.409 564.929 557.409 572.914 557.409 577.876 552.775 577.876 544.881L577.876 512 585 512 585 545.025C585 550.674 583.129 555.233 579.461 558.787 575.794 562.261 570.974 564 565.002 564 559.031 564 554.206 562.261 550.538 558.787 546.866 555.233 545 550.674 545 545.025L545 512Z" fill="#FFFEFD" fill-rule="evenodd"/><path d="M613 512 627.865 512 629 512.144 629 518.446 627.658 518.214 619.811 518.214 619.811 536.489 629 536.489 629 542.703 619.811 542.703 619.811 563 613 563 613 512Z" fill="#FFFEFD" fill-rule="evenodd"/><path d="M629 513 637.298 513.995C642.535 515.915 645.837 521.028 645.837 527.56 645.837 534.024 642.25 539.35 636.723 541.129L636.723 541.27C637.081 541.698 637.583 542.476 638.227 543.54L649 563 640.958 563 630.258 543.044 629 543.044 629 536.935 629.614 536.935C635.141 536.935 638.585 533.455 638.585 527.846 638.585 524.148 637.224 521.596 634.566 520.104L629 519.195 629 513Z" fill="#FFFEFD" fill-rule="evenodd"/><path d="M673 512 680 512 680 563 673 563 673 512" fill="#FFFEFD" fill-rule="evenodd"/><path d="M721.506 512C724.3 512 726.882 512.419 729.248 513.277 731.62 514.131 733.343 514.989 734.344 515.841L735.851 517.055 732.621 522.896C732.263 522.539 731.762 522.183 731.114 521.686 730.471 521.184 729.175 520.546 727.245 519.761 725.306 518.976 723.436 518.547 721.506 518.547 716.268 518.547 712.321 521.828 712.321 525.889 712.321 529.667 716.121 532.226 720.932 534.151 727.962 536.784 737 540.42 736.853 549.824 736.853 553.885 735.42 557.234 732.479 559.939 729.538 562.645 725.664 564 720.785 564 712.321 564 706.435 559.871 704.717 558.018L704 557.375 708.016 552.032C708.305 552.32 708.59 552.603 710.382 553.958 712.749 555.591 716.337 557.448 720.932 557.448 725.88 557.448 729.68 554.601 729.68 550.038 729.68 539.211 705.144 541.42 705.144 526.03 705.144 522.111 706.651 518.762 709.739 516.056 712.822 513.35 716.765 512 721.506 512Z" fill="#FFFEFD" fill-rule="evenodd"/><path d="M764.049 512 771.438 512 782.943 539.594 785.427 546.46 785.573 546.46C786.492 543.785 787.274 541.472 788.057 539.594L799.562 512 806.951 512 811 563 804.039 563 801.555 530.854 801.483 523.34 801.341 523.34C800.345 526.449 799.422 528.975 798.639 530.854L788.625 553.83 782.375 553.83 772.425 530.854 769.731 523.196 769.586 523.196C769.659 526.232 769.586 528.758 769.445 530.854L767.029 563 760 563 764.049 512Z" fill="#FFFEFD" fill-rule="evenodd"/><path d="M860 512 860 518.412 852.812 519.794C850.606 520.722 848.598 522.112 846.767 523.967 843.11 527.595 841.314 532.154 841.314 537.644 841.314 543.271 843.11 547.976 846.767 551.823 848.598 553.71 850.606 555.135 852.812 556.088L860 557.515 860 564 849.923 562.091C846.838 560.817 844.04 558.91 841.53 556.382 836.513 551.325 834 545.055 834 537.644 834 530.443 836.513 524.319 841.53 519.404 844.04 516.944 846.838 515.091 849.923 513.854L860 512Z" fill="#FFFEFD" fill-rule="evenodd"/><path d="M860.039 512C867.351 512 873.52 514.491 878.467 519.409 883.487 524.323 886 530.445 886 537.644 886 545.053 883.487 551.322 878.467 556.377 873.52 561.432 867.351 564 860.039 564L860 563.993 860 557.51 860.039 557.517C865.271 557.517 869.644 555.592 873.235 551.819 876.892 547.973 878.683 543.269 878.683 537.644 878.683 532.156 876.892 527.598 873.235 523.971 869.644 520.262 865.271 518.41 860.039 518.41L860 518.417 860 512.007 860.039 512Z" fill="#FFFEFD" fill-rule="evenodd"/><path d="M685.239 104 685.258 104C694.933 104.005 704.617 108.531 710.667 117.584L832.904 300.476C838.35 308.627 839 317.955 836.195 326L797.065 299.514 797.065 283.547C797.065 281.518 795.765 279.712 793.843 279.071L786.401 276.588C784.753 276.038 783.051 277.27 783.051 279.011L783.051 289.499 757.033 275.47 757.033 261.047C757.033 258.495 755.399 256.227 752.983 255.421L748.328 253.868C745.719 252.997 743.024 254.944 743.024 257.693L743.024 264.121 709.665 244.086 706.672 184.718C706.397 179.307 704.411 174.103 700.896 169.988 697.175 165.631 691.797 161.242 685.574 161.934 679.349 161.242 673.972 165.631 670.256 169.988 666.736 174.103 664.754 179.307 664.475 184.718L661.482 244.086 628.128 264.121 628.128 257.693C628.128 254.944 625.432 252.997 622.814 253.868L618.164 255.421C615.748 256.227 614.114 258.495 614.114 261.047L614.114 275.47 588.096 289.499 588.096 279.011C588.096 277.27 586.389 276.038 584.746 276.588L577.309 279.071C575.382 279.712 574.087 281.518 574.087 283.547L574.087 299.514 535.442 325.67C532 316.805 532.536 306.332 538.659 297.246L659.912 117.479C665.972 108.49 675.61 104 685.239 104Z" fill="#FFFEFD" fill-rule="evenodd"/><text fill="#FFFEFD" font-family="Calibri,Calibri_MSFontService,sans-serif" font-weight="400" font-size="149" transform="matrix(1 0 0 1 2064.28 328)">VOE<tspan font-size="149" x="257.469" y="0">ALTO</tspan></text><path d="M2188 379 2227 379 2227 384.603 2210.81 384.603 2210.81 425 2204.19 425 2204.19 384.603 2188 384.603 2188 379Z" fill="#FFFEFD" fill-rule="evenodd"/><path d="M2246 379 2252.41 379 2252.41 408.852C2252.41 415.852 2256.87 420.045 2263.93 420.045 2271.12 420.045 2275.59 415.852 2275.59 408.723L2275.59 379 2282 379 2282 408.852C2282 413.958 2280.31 418.082 2277.01 421.289 2273.71 424.431 2269.37 426 2264 426 2258.62 426 2254.29 424.431 2250.99 421.289 2247.68 418.082 2246 413.958 2246 408.852L2246 379Z" fill="#FFFEFD" fill-rule="evenodd"/><path d="M2307 379 2320.93 379 2322 379.131 2322 384.816 2320.74 384.607 2313.39 384.607 2313.39 401.087 2322 401.087 2322 406.694 2313.39 406.694 2313.39 425 2307 425 2307 379Z" fill="#FFFEFD" fill-rule="evenodd"/><path d="M2322 379 2329.46 379.917C2334.18 381.676 2337.16 386.383 2337.16 392.396 2337.16 398.339 2333.92 403.239 2328.94 404.874L2328.94 405.007C2329.27 405.396 2329.72 406.115 2330.3 407.095L2340 425 2332.76 425 2323.13 406.642 2322 406.642 2322 401.018 2322.55 401.018C2327.52 401.018 2330.63 397.818 2330.63 392.657 2330.63 389.259 2329.4 386.905 2327.01 385.532L2322 384.701 2322 379Z" fill="#FFFEFD" fill-rule="evenodd"/><path d="M2362 379 2368 379 2368 425 2362 425 2362 379" fill="#FFFEFD" fill-rule="evenodd"/><path d="M2406.44 378C2409.07 378 2411.5 378.392 2413.72 379.184 2415.95 379.972 2417.57 380.76 2418.51 381.553L2419.92 382.668 2416.89 388.06C2416.56 387.728 2416.08 387.401 2415.48 386.945 2414.87 386.479 2413.66 385.889 2411.84 385.166 2410.01 384.447 2408.26 384.051 2406.44 384.051 2401.52 384.051 2397.81 387.074 2397.81 390.82 2397.81 394.304 2401.39 396.673 2405.9 398.451 2412.51 400.88 2421 404.235 2420.87 412.917 2420.87 416.664 2419.52 419.755 2416.76 422.253 2413.99 424.756 2410.35 426 2405.77 426 2397.81 426 2392.29 422.189 2390.68 420.479L2390 419.885 2393.77 414.954C2394.04 415.217 2394.31 415.479 2396 416.728 2398.22 418.244 2401.59 419.954 2405.9 419.954 2410.56 419.954 2414.13 417.318 2414.13 413.111 2414.13 403.115 2391.08 405.157 2391.08 390.954 2391.08 387.336 2392.49 384.249 2395.39 381.747 2398.29 379.249 2401.99 378 2406.44 378Z" fill="#FFFEFD" fill-rule="evenodd"/><path d="M2444.73 379 2451.54 379 2462.14 403.891 2464.43 410.078 2464.57 410.078C2465.42 407.667 2466.14 405.58 2466.86 403.891L2477.46 379 2484.27 379 2488 425 2481.59 425 2479.3 396.005 2479.23 389.228 2479.1 389.228C2478.18 392.028 2477.33 394.311 2476.61 396.005L2467.38 416.726 2461.62 416.726 2452.46 396.005 2449.96 389.1 2449.84 389.1C2449.9 391.831 2449.84 394.114 2449.7 396.005L2447.48 425 2441 425 2444.73 379Z" fill="#FFFEFD" fill-rule="evenodd"/><path d="M2533 378 2533 383.923 2526.36 385.198C2524.33 386.052 2522.47 387.333 2520.78 389.043 2517.41 392.399 2515.75 396.612 2515.75 401.673 2515.75 406.867 2517.41 411.21 2520.78 414.763 2522.47 416.506 2524.33 417.822 2526.36 418.702L2533 420.022 2533 426 2523.7 424.24C2520.85 423.065 2518.27 421.307 2515.95 418.972 2511.32 414.298 2509 408.518 2509 401.673 2509 395.03 2511.32 389.37 2515.95 384.835 2518.27 382.565 2520.85 380.855 2523.7 379.712L2533 378Z" fill="#FFFEFD" fill-rule="evenodd"/><path d="M2533.03 378C2539.79 378 2545.48 380.3 2550.05 384.839 2554.68 389.374 2557 395.032 2557 401.673 2557 408.516 2554.68 414.295 2550.05 418.968 2545.48 423.636 2539.79 426 2533.03 426L2533 425.994 2533 420.017 2533.03 420.023C2537.86 420.023 2541.9 418.244 2545.21 414.76 2548.59 411.207 2550.25 406.866 2550.25 401.673 2550.25 396.613 2548.59 392.401 2545.21 389.046 2541.9 385.627 2537.86 383.922 2533.03 383.922L2533 383.927 2533 378.006 2533.03 378Z" fill="#FFFEFD" fill-rule="evenodd"/><path d="M1858.26 223 1858.28 223C1867.14 223.005 1875.99 227.144 1881.53 235.423L1993.42 402.662C1998.41 410.111 1999 418.642 1996.43 426L1960.61 401.786 1960.61 387.182C1960.61 385.325 1959.43 383.674 1957.66 383.088L1950.85 380.819C1949.34 380.314 1947.8 381.438 1947.8 383.033L1947.8 392.623 1923.97 379.796 1923.97 366.608C1923.97 364.275 1922.48 362.198 1920.27 361.464L1916.01 360.043C1913.62 359.246 1911.15 361.024 1911.15 363.541L1911.15 369.413 1880.62 351.095 1877.88 296.805C1877.63 291.859 1875.81 287.105 1872.59 283.341 1869.18 279.353 1864.26 275.342 1858.57 275.974 1852.88 275.342 1847.95 279.353 1844.54 283.341 1841.32 287.105 1839.51 291.859 1839.26 296.805L1836.51 351.095 1805.98 369.413 1805.98 363.541C1805.98 361.024 1803.52 359.246 1801.13 360.043L1796.87 361.464C1794.65 362.198 1793.16 364.275 1793.16 366.608L1793.16 379.796 1769.34 392.623 1769.34 383.033C1769.34 381.438 1767.78 380.314 1766.28 380.819L1759.47 383.088C1757.71 383.674 1756.52 385.325 1756.52 387.182L1756.52 401.786 1721.14 425.697C1718 417.592 1718.49 408.012 1724.1 399.705L1835.08 235.322C1840.63 227.107 1849.44 223 1858.26 223Z" fill="#FFFEFD" fill-rule="evenodd"/></g></svg>